<?xml version="1.0" encoding="UTF-8" standalone="no"?>
<!-- Created with Inkscape (http://www.inkscape.org/) -->
<svg id="svg5949" xmlns:rdf="http://www.w3.org/1999/02/22-rdf-syntax-ns#" xmlns="http://www.w3.org/2000/svg" viewBox="0 0 136 42.805995" height="100%" width="100%" version="1.1" xmlns:cc="http://creativecommons.org/ns#" xmlns:dc="http://purl.org/dc/elements/1.1/">
 <metadata id="metadata5954">
  <rdf:RDF>
   <cc:Work rdf:about="">
    <dc:format>image/svg+xml</dc:format>
    <dc:type rdf:resource="http://purl.org/dc/dcmitype/StillImage"/>
    <dc:title/>
   </cc:Work>
  </rdf:RDF>
 </metadata>
 <style id="style3057">
     .on {
 		fill: #fffff0;
 	}
 	.off {
 		fill: none;
 	}
 	.unselectable {
 		-webkit-touch-callout: none;
	    -webkit-user-select: none;
	    -khtml-user-select: none;
	    -moz-user-select: none;
	    -ms-user-select: none;
	    user-select: none;
 	}</style>
 <g id="layer1" transform="translate(75.5,24.943994)">
  <g id="g3855">
   <path id="path6543" d="m-105-17.638c0,8.2843-6.7157,15-15,15s-15-6.7157-15-15,6.7157-15,15-15,15,6.7157,15,15z" class="on" stroke="#fffff0" transform="translate(60,20)" stroke-miterlimit="4" stroke-dasharray="none" stroke-width="1" fill="#fffff0"/>
   <path id="path6543-0" d="m-105-17.638c0,8.2843-6.7157,15-15,15s-15-6.7157-15-15,6.7157-15,15-15,15,6.7157,15,15z" class="off" stroke="#fffff0" transform="translate(95,20)" stroke-miterlimit="4" stroke-dasharray="none" stroke-width="1" fill="none"/>
   <path id="path6543-7" d="m-105-17.638c0,8.2843-6.7157,15-15,15s-15-6.7157-15-15,6.7157-15,15-15,15,6.7157,15,15z" class="off" stroke="#fffff0" transform="translate(130,20)" stroke-miterlimit="4" stroke-dasharray="none" stroke-width="1" fill="none"/>
   <path id="path6543-5" d="m-105-17.638c0,8.2843-6.7157,15-15,15s-15-6.7157-15-15,6.7157-15,15-15,15,6.7157,15,15z" class="off" stroke="#fffff0" transform="translate(165,20)" stroke-miterlimit="4" stroke-dasharray="none" stroke-width="1" fill="none"/>
   <text id="text6598" font-size="14px" font-family="Sans" style="writing-mode:lr-tb;letter-spacing:0px;text-anchor:start;word-spacing:0px;text-align:start;" font-style="normal" class="unselectable" font-stretch="normal" xml:space="preserve" font-variant="normal" y="7.5574951" x="-64.265625" font-weight="normal" line-height="125%" fill="#ffa319"><tspan id="tspan6600" y="7.5574951" x="-64.265625" fill="#ffa319">1</tspan></text>
   <text id="text6602" font-size="14px" font-family="Sans" style="writing-mode:lr-tb;letter-spacing:0px;text-anchor:start;word-spacing:0px;text-align:start;" font-style="normal" class="unselectable" font-stretch="normal" xml:space="preserve" font-variant="normal" y="7.5574951" x="-29.265625" font-weight="normal" line-height="125%" fill="#ffa319"><tspan id="tspan6604" y="7.5574951" x="-29.265625" fill="#ffa319">2</tspan></text>
   <text id="text6606" font-size="14px" font-family="Sans" style="writing-mode:lr-tb;letter-spacing:0px;text-anchor:start;word-spacing:0px;text-align:start;" font-style="normal" class="unselectable" font-stretch="normal" xml:space="preserve" font-variant="normal" y="7.5574951" x="5.734375" font-weight="normal" line-height="125%" fill="#ffa319"><tspan id="tspan6608" y="7.5574951" x="5.734375" fill="#ffa319">3</tspan></text>
   <text id="text6610" font-size="14px" font-family="Sans" style="writing-mode:lr-tb;letter-spacing:0px;text-anchor:start;word-spacing:0px;text-align:start;" font-style="normal" class="unselectable" font-stretch="normal" xml:space="preserve" font-variant="normal" y="7.458374" x="40.57373" font-weight="normal" line-height="125%" fill="#ffa319"><tspan id="tspan6612" y="7.458374" x="40.57373" fill="#ffa319">4</tspan></text>
  </g>
  <text id="text6630" style="writing-mode:lr-tb;letter-spacing:0px;text-anchor:start;word-spacing:0px;text-align:start;" line-height="125%" font-family="Droid Sans" xml:space="preserve" font-size="12px" y="-16.242823" font-stretch="normal" font-variant="normal" font-style="normal" x="-66.533203" font-weight="normal" class="unselectable" fill="#fffff0"><tspan id="tspan6632" y="-16.242823" x="-66.533203">COMPLETED ACTIONS</tspan></text>
 </g>
</svg>
