<!-- Created with Inkscape (http://www.inkscape.org/) -->
<svg id="actions-count" xmlns:rdf="http://www.w3.org/1999/02/22-rdf-syntax-ns#" xmlns="http://www.w3.org/2000/svg" viewBox="0 0 308.39 45.290178" version="1.1" xmlns:cc="http://creativecommons.org/ns#" xmlns:dc="http://purl.org/dc/elements/1.1/">
 <metadata id="metadata5954">
  <rdf:RDF>
   <cc:Work rdf:about="">
    <dc:format>image/svg+xml</dc:format>
    <dc:type rdf:resource="http://purl.org/dc/dcmitype/StillImage"/>
    <dc:title/>
   </cc:Work>
  </rdf:RDF>
 </metadata>
 <style id="style3057">.on {
 		fill: #fffff0;
 	}
 	.off {
 		fill: none;
 	}
 	.unselectable {
 		-webkit-touch-callout: none;
	    -webkit-user-select: none;
	    -khtml-user-select: none;
	    -moz-user-select: none;
	    -ms-user-select: none;
	    user-select: none;
 	}</style>
 <g id="layer1" transform="translate(75.5,7.4158115)">
  <g id="g3261">
   <g id="g3211" transform="translate(0,5.7222225)">
    <path id="action-1" d="m-105-17.638c0,8.2843-6.7157,15-15,15s-15-6.7157-15-15,6.7157-15,15-15,15,6.7157,15,15z" transform="translate(60,20)" stroke="#fffff0" stroke-miterlimit="4" stroke-dasharray="none" stroke-width="1" class="off" fill="none"/>
    <text id="text6598" font-size="14px" font-family="Sans" xml:space="preserve" style="writing-mode:lr-tb;letter-spacing:0px;text-anchor:start;word-spacing:0px;text-align:start;" font-style="normal" line-height="125%" class="unselectable" font-stretch="normal" font-variant="normal" y="7.4650273" x="-68.647461" font-weight="normal" fill="#ffa319"><tspan id="tspan6600" y="7.4650273" x="-68.647461" fill="#ffa319"><tspan id="tspan3187" style="writing-mode:lr-tb;text-anchor:start;text-align:start;" font-family="Sans" font-size="14px" line-height="125%" font-stretch="normal" font-variant="normal" font-style="normal" font-weight="normal">A</tspan>1</tspan></text>
   </g>
   <g id="g3217" transform="translate(-0.32638931,5.7222225)">
    <path id="action-2" d="m-105-17.638c0,8.2843-6.7157,15-15,15s-15-6.7157-15-15,6.7157-15,15-15,15,6.7157,15,15z" transform="translate(95,20)" stroke="#fffff0" stroke-miterlimit="4" stroke-dasharray="none" stroke-width="1" class="off" fill="none"/>
    <text id="text6602" font-size="14px" font-family="Sans" xml:space="preserve" style="writing-mode:lr-tb;letter-spacing:0px;text-anchor:start;word-spacing:0px;text-align:start;" font-style="normal" line-height="125%" class="unselectable" font-stretch="normal" font-variant="normal" y="7.5573125" x="-33.592773" font-weight="normal" fill="#ffa319"><tspan id="tspan6604" y="7.5573125" x="-33.592773" fill="#ffa319">A2</tspan></text>
   </g>
   <g id="g3222" transform="translate(-0.65277863,5.7222225)">
    <path id="action-3" d="m-105-17.638c0,8.2843-6.7157,15-15,15s-15-6.7157-15-15,6.7157-15,15-15,15,6.7157,15,15z" transform="translate(130,20)" stroke="#fffff0" stroke-miterlimit="4" stroke-dasharray="none" stroke-width="1" class="off" fill="none"/>
    <text id="text6606" font-size="14px" font-family="Sans" xml:space="preserve" style="writing-mode:lr-tb;letter-spacing:0px;text-anchor:start;word-spacing:0px;text-align:start;" font-style="normal" line-height="125%" class="unselectable" font-stretch="normal" font-variant="normal" y="7.4581914" x="1.2670898" font-weight="normal" fill="#ffa319"><tspan id="tspan6608" y="7.4581914" x="1.2670898" fill="#ffa319">A3</tspan></text>
   </g>
   <g id="g3227" transform="translate(-0.97917175,5.7222225)">
    <path id="action-4" d="m-105-17.638c0,8.2843-6.7157,15-15,15s-15-6.7157-15-15,6.7157-15,15-15,15,6.7157,15,15z" transform="translate(165,20)" stroke="#fffff0" stroke-miterlimit="4" stroke-dasharray="none" stroke-width="1" class="off" fill="none"/>
    <text id="text6610" font-size="14px" font-family="Sans" xml:space="preserve" style="writing-mode:lr-tb;letter-spacing:0px;text-anchor:start;word-spacing:0px;text-align:start;" font-style="normal" line-height="125%" class="unselectable" font-stretch="normal" font-variant="normal" y="7.4650273" x="36.099609" font-weight="normal" fill="#ffa319"><tspan id="tspan6612" y="7.4650273" x="36.099609" fill="#ffa319">A4</tspan></text>
   </g>
   <g id="g3232" transform="translate(-2.9166718,4.444444)">
    <path id="draw-phase" d="m96.611,3.6398c0,8.2843-6.7157,15-15,15s-15-6.7157-15-15,6.7157-15,15-15,15,6.7157,15,15z" stroke="#fffff0" stroke-miterlimit="4" stroke-dasharray="none" stroke-width="1" class="off" fill="none"/>
    <text id="text6610-1" font-size="14px" font-family="Sans" xml:space="preserve" style="writing-mode:lr-tb;letter-spacing:0px;text-anchor:start;word-spacing:0px;text-align:start;" font-style="normal" line-height="125%" class="unselectable" font-stretch="normal" font-variant="normal" y="8.7428055" x="75.94754" font-weight="normal" fill="#ffa319"><tspan id="tspan6612-5" y="8.7428055" x="75.94754" fill="#ffa319">D</tspan></text>
   </g>
   <g id="g3237" transform="translate(-6.0208282,6.8888885)">
    <path id="inf-phase-1" d="m134.39,1.1953c0,8.2843-6.7157,15-15,15s-15-6.7157-15-15,6.7157-15,15-15,15,6.7157,15,15z" stroke="#fffff0" stroke-miterlimit="4" stroke-dasharray="none" stroke-width="1" class="off" fill="none"/>
    <text id="text6610-3" font-size="14px" font-family="Sans" xml:space="preserve" style="writing-mode:lr-tb;letter-spacing:0px;text-anchor:start;word-spacing:0px;text-align:start;" font-style="normal" line-height="125%" class="unselectable" font-stretch="normal" font-variant="normal" y="6.2983613" x="112.43333" font-weight="normal" fill="#ffa319"><tspan id="tspan6612-3" y="6.2983613" x="112.43333" fill="#ffa319"><tspan id="tspan3193" style="writing-mode:lr-tb;text-anchor:start;text-align:start;" font-family="DejaVu Serif" font-size="14px" line-height="125%" font-stretch="normal" font-variant="normal" font-style="normal" font-weight="normal">I</tspan>1</tspan></text>
   </g>
   <g id="g3243" transform="translate(-10.013901,4.444444)">
    <path id="inf-phase-2" d="m173.06,3.6398c0,8.2843-6.7157,15-15,15s-15-6.7157-15-15,6.7157-15,15-15,15,6.7157,15,15z" stroke="#fffff0" stroke-miterlimit="4" stroke-dasharray="none" stroke-width="1" class="off" fill="none"/>
    <text id="text6610-6" font-size="14px" font-family="Sans" xml:space="preserve" style="writing-mode:lr-tb;letter-spacing:0px;text-anchor:start;word-spacing:0px;text-align:start;" font-style="normal" line-height="125%" class="unselectable" font-stretch="normal" font-variant="normal" y="8.8350906" x="151.15468" font-weight="normal" fill="#ffa319"><tspan id="tspan6612-32" y="8.8350906" x="151.15468" fill="#ffa319"><tspan id="tspan3199" font-family="DejaVu Serif" font-style="normal" font-stretch="normal" font-variant="normal" font-weight="normal">I</tspan>2</tspan></text>
   </g>
   <g id="g3249" transform="translate(-6.4513855,3.111111)">
    <path id="inf-phase-3" d="m204.17,4.9731c0,8.2843-6.7157,15-15,15s-15-6.7157-15-15,6.7157-15,15-15,15,6.7157,15,15z" stroke="#fffff0" stroke-miterlimit="4" stroke-dasharray="none" stroke-width="1" class="off" fill="none"/>
    <text id="text6610-64" font-size="14px" font-family="Sans" xml:space="preserve" style="writing-mode:lr-tb;letter-spacing:0px;text-anchor:start;word-spacing:0px;text-align:start;" font-style="normal" line-height="125%" class="unselectable" font-stretch="normal" font-variant="normal" y="10.069303" x="182.12566" font-weight="normal" fill="#ffa319"><tspan id="tspan6612-34" y="10.069303" x="182.12566" fill="#ffa319"><tspan id="tspan3201" font-family="DejaVu Serif" font-style="normal" font-stretch="normal" font-variant="normal" font-weight="normal">I</tspan>3</tspan></text>
   </g>
   <g id="g3255">
    <path id="inf-phase-4" d="m232.39,8.0842c0,8.2843-6.7157,15-15,15s-15-6.7157-15-15,6.7157-15,15-15,15,6.7157,15,15z" stroke="#fffff0" stroke-miterlimit="4" stroke-dasharray="none" stroke-width="1" class="off" fill="none"/>
    <text id="text6610-9" font-size="14px" font-family="Sans" xml:space="preserve" style="writing-mode:lr-tb;letter-spacing:0px;text-anchor:start;word-spacing:0px;text-align:start;" font-style="normal" line-height="125%" class="unselectable" font-stretch="normal" font-variant="normal" y="13.18725" x="210.18039" font-weight="normal" fill="#ffa319"><tspan id="tspan6612-1" y="13.18725" x="210.18039" fill="#ffa319"><tspan id="tspan3203" font-family="DejaVu Serif" font-style="normal" font-stretch="normal" font-variant="normal" font-weight="normal">I</tspan>4</tspan></text>
   </g>
  </g>
  <text id="text6630" style="writing-mode:lr-tb;letter-spacing:0px;text-anchor:start;word-spacing:0px;text-align:start;" font-family="Droid Sans" y="37.757179" xml:space="preserve" font-size="12px" class="unselectable" font-stretch="normal" font-variant="normal" font-style="normal" x="60.879017" font-weight="normal" line-height="125%" fill="#fffff0"><tspan id="tspan6632" y="37.757179" x="60.879017">PHASE</tspan></text>
 </g>
</svg>
