<?xml version="1.0" encoding="UTF-8" standalone="no"?>
<!-- Created with Inkscape (http://www.inkscape.org/) -->

<svg
   xmlns:dc="http://purl.org/dc/elements/1.1/"
   xmlns:cc="http://creativecommons.org/ns#"
   xmlns:rdf="http://www.w3.org/1999/02/22-rdf-syntax-ns#"
   xmlns:svg="http://www.w3.org/2000/svg"
   xmlns="http://www.w3.org/2000/svg"
   xmlns:sodipodi="http://sodipodi.sourceforge.net/DTD/sodipodi-0.dtd"
   xmlns:inkscape="http://www.inkscape.org/namespaces/inkscape"
   width="325"
   height="325"
   id="svg2"
   version="1.1"
   inkscape:version="0.48.4 r9939"
   sodipodi:docname="icon.svg"
   inkscape:export-filename="/home/max/PyDemic/app/static/img/icon.png"
   inkscape:export-xdpi="90"
   inkscape:export-ydpi="90">
  <defs
     id="defs4" />
  <sodipodi:namedview
     id="base"
     pagecolor="#ffffff"
     bordercolor="#666666"
     borderopacity="1.0"
     inkscape:pageopacity="0.0"
     inkscape:pageshadow="2"
     inkscape:zoom="1.979899"
     inkscape:cx="147.36043"
     inkscape:cy="210.55497"
     inkscape:document-units="px"
     inkscape:current-layer="layer1"
     showgrid="false"
     inkscape:snap-object-midpoints="true"
     inkscape:snap-center="true"
     inkscape:window-width="1920"
     inkscape:window-height="1056"
     inkscape:window-x="0"
     inkscape:window-y="24"
     inkscape:window-maximized="1"
     fit-margin-top="0"
     fit-margin-left="0"
     fit-margin-right="0"
     fit-margin-bottom="0" />
  <metadata
     id="metadata7">
    <rdf:RDF>
      <cc:Work
         rdf:about="">
        <dc:format>image/svg+xml</dc:format>
        <dc:type
           rdf:resource="http://purl.org/dc/dcmitype/StillImage" />
      </cc:Work>
    </rdf:RDF>
  </metadata>
  <g
     inkscape:label="Layer 1"
     inkscape:groupmode="layer"
     id="layer1"
     transform="translate(-47.992401,-629.87227)">
    <g
       style="font-size:350px;font-style:normal;font-weight:normal;line-height:125%;letter-spacing:0px;word-spacing:0px;fill:#000000;fill-opacity:1;stroke:none;font-family:Sans"
       id="text2985"
       transform="translate(-5.0507627,-4.5456865)" />
    <path
       style="fill:#007a00;fill-opacity:1;stroke:none;stroke-width:1.83858323000000001;stroke-miterlimit:4;stroke-opacity:1;stroke-dasharray:none"
       d="M 162.5 0.90625 C 73.261439 0.90625 0.90625 73.261439 0.90625 162.5 C 0.90625 251.73856 73.261439 324.09375 162.5 324.09375 C 251.73856 324.09375 324.09375 251.73856 324.09375 162.5 C 324.09375 73.261439 251.73856 0.90625 162.5 0.90625 z M 196.15625 8.15625 C 215.93142 16.33523 231.49097 33.66724 242.84375 60.15625 C 248.82494 79.56563 245.60717 99.32733 233.15625 119.46875 L 233.875 119.46875 C 246.69213 120.68962 260.44504 125.4152 275.09375 133.59375 C 298.89715 149.46303 310.78093 173.06554 310.78125 204.4375 L 310.78125 206.28125 C 309.19402 187.1163 302.00457 171.98351 289.1875 160.875 C 276.36983 149.76673 263.10911 144.18764 249.4375 144.1875 C 227.0984 145.40834 207.99393 154.99329 192.125 172.9375 L 179.3125 165.625 C 180.1668 155.61536 176.32598 148.95228 167.78125 145.65625 L 167.78125 131.9375 C 189.99784 128.15347 206.24588 116.73064 216.5 97.6875 C 224.80055 84.01583 227.72242 70.09786 225.28125 55.9375 C 222.96169 41.77758 213.24588 25.8567 196.15625 8.15625 z M 134.46875 8.6875 C 112.86218 21.38308 100.45497 36.12037 97.28125 52.84375 C 94.10732 69.44553 95.94521 83.79024 102.78125 95.875 C 115.11023 114.42985 132.93443 126.08317 156.25 130.84375 L 156.4375 145.84375 C 147.16 149.99427 143.25375 156.59192 144.71875 165.625 L 133 172.21875 C 118.59557 154.88489 100.70595 146.58022 79.34375 147.3125 C 63.10833 147.0685 49.486272 151.53236 38.5 160.6875 C 27.513637 169.72082 18.682592 185.93759 11.96875 209.375 C 11.48045 206.44539 11.218732 203.45809 11.21875 200.40625 C 11.218732 182.21787 18.604466 163.30968 33.375 143.65625 C 47.290961 128.51968 66.03411 121.29899 89.59375 122.03125 L 89.21875 121.6875 C 83.84756 109.72478 81.05655 95.38007 80.8125 78.65625 C 82.8876 45.69751 100.77724 22.35964 134.46875 8.6875 z M 160 96.15625 C 160.93842 96.158624 161.89007 96.180614 162.84375 96.21875 C 178.10235 96.70722 190.24785 100.31757 199.28125 107.03125 C 196.22928 111.05974 192.32304 113.75115 187.5625 115.09375 C 179.13946 110.45525 169.78498 108.38689 159.53125 108.875 C 149.27719 109.24138 140.38071 112.03239 132.8125 117.28125 C 128.78404 114.59587 125.50084 111.54314 122.9375 108.125 C 133.58037 100.11432 145.92364 96.120637 160 96.15625 z M 229.3125 156.09375 C 230.89918 170.00987 227.65016 183.50107 219.59375 196.5625 C 211.53689 209.50202 202.34451 218.23346 191.96875 222.75 C 190.01542 218.11139 189.58867 213.41706 190.6875 208.65625 C 198.98807 203.77351 205.48905 196.74911 210.25 187.59375 C 215.01052 178.43858 216.97927 169.11535 216.125 159.59375 C 220.5193 157.88489 224.91774 156.70422 229.3125 156.09375 z M 95.28125 157.75 C 100.4081 158.48254 104.7411 160.55091 108.28125 163.96875 C 108.28113 173.49035 111.00672 182.64854 116.5 191.4375 C 122.11511 200.10458 129.20494 206.40632 137.75 210.3125 C 137.38364 214.95124 136.23424 219.34967 134.28125 223.5 C 121.58581 217.88483 111.50867 208.33405 104.0625 194.90625 C 96.73818 181.35654 93.8163 168.98058 95.28125 157.75 z M 151.3125 173.3125 C 159.61312 179.17198 167.29475 179.2374 174.375 173.5 L 186.09375 180.625 C 178.28107 201.62117 180.05352 221.34869 191.40625 239.78125 C 199.09647 253.69729 209.6658 263.21682 223.09375 268.34375 C 236.52124 273.34864 255.13353 272.85645 278.9375 266.875 C 265.63157 277.00684 248.82592 282.09375 228.5625 282.09375 C 222.94704 282.09375 217.10329 281.70117 211 280.96875 C 190.98027 276.57422 175.35528 264.00197 164.125 243.25 L 163.9375 243.625 C 156.49105 254.36722 145.49496 263.95217 130.96875 272.375 C 119.73815 278.11231 108.28113 280.96875 96.5625 280.96875 C 81.42569 280.96875 66.03118 276.40528 50.40625 267.25 C 67.86223 275.42871 84.53702 276.70899 100.40625 271.09375 C 116.39734 265.47853 127.91978 256.7471 135 244.90625 C 145.13168 225.00885 146.34652 203.70516 138.65625 181 L 151.3125 173.3125 z "
       transform="translate(47.992401,629.87227)"
       id="path3786" />
  </g>
  <g
     inkscape:groupmode="layer"
     id="layer2"
     inkscape:label="Layer"
     transform="translate(-47.992401,-629.87227)">
    <g
       style="font-size:18px;font-style:normal;font-weight:normal;line-height:125%;letter-spacing:0px;word-spacing:0px;fill:#000000;fill-opacity:1;stroke:none;font-family:Sans"
       id="text3839" />
  </g>
</svg>
