<!-- Created with Inkscape (http://www.inkscape.org/) -->
<svg id="svg3046" xmlns:rdf="http://www.w3.org/1999/02/22-rdf-syntax-ns#" xmlns="http://www.w3.org/2000/svg" viewBox="0 0 97.84375 89.5625" height="100%" width="100%" version="1.1" xmlns:cc="http://creativecommons.org/ns#" xmlns:dc="http://purl.org/dc/elements/1.1/">
 <metadata id="metadata3051">
  <rdf:RDF>
   <cc:Work rdf:about="">
    <dc:format>image/svg+xml</dc:format>
    <dc:type rdf:resource="http://purl.org/dc/dcmitype/StillImage"/>
    <dc:title/>
   </cc:Work>
  </rdf:RDF>
 </metadata>
 <g id="text2993" stroke-width="2" style="letter-spacing:0px;word-spacing:0px;" font-family="Sans" font-size="18px" transform="translate(1.6874999,1.09375)" stroke="#fffff0" stroke-miterlimit="4" line-height="125%" font-style="normal" stroke-dasharray="none" font-weight="normal" fill="#434343">
  <path id="path3762" style="text-align:start;" d="m56.719,63.984c2.6562-1.5625,4.6874-3.6914,6.0938-6.3867,1.4062-2.7343,2.1093-5.3711,2.1094-7.9102-0.000071-0.46871-0.0196-0.93746-0.05859-1.4062,1.4062-0.54684,2.8124-0.91793,4.2188-1.1133,0.07805,0.74223,0.11711,1.4649,0.11719,2.168-0.000076,3.711-1.1915,7.4805-3.5742,11.309-2.3438,3.7891-5.1758,6.4063-8.4961,7.8516-0.39069-0.93748-0.586-1.8945-0.58594-2.8711-0.000063-0.54685,0.05853-1.0937,0.17578-1.6406m-0.996-29.942c-2.461-1.3671-5.1758-2.0507-8.1445-2.0508-0.27349,0.000056-1.3086,0.03912-3.1055,0.11719-1.7579,0.07818-3.8477,0.95709-6.2695,2.6367-1.2891-0.85932-2.3438-1.8359-3.1641-2.9297,3.3984-2.5781,7.3632-3.8671,11.895-3.8672,0.27338,0.000059,1.6992,0.05865,4.2773,0.17578,2.6171,0.07818,5.371,1.1915,8.2617,3.3398-0.97663,1.2891-2.2266,2.1485-3.75,2.5781m-25.37,15.645c-0.000036,3.0469,0.87887,5.9766,2.6367,8.7891,1.7968,2.7735,4.0625,4.7852,6.7969,6.0352-0.11723,1.4844-0.48833,2.8906-1.1133,4.2188-4.0625-1.7969-7.1875-4.6679-9.375-8.6133-2.1485-3.9843-3.2227-7.5195-3.2227-10.605-0.000033-0.62496,0.03903-1.2304,0.11719-1.8164,1.6406,0.23442,3.0273,0.89848,4.1602,1.9922m54.609,32.93c-4.2579,3.2422-9.629,4.8633-16.113,4.8633-1.7969,0-3.6719-0.11719-5.625-0.35156-6.4063-1.4062-11.406-5.4297-15-12.07l-0.05859,0.11719c-2.383,3.436-5.898,6.503-10.547,9.198-3.5938,1.8359-7.2657,2.7539-11.016,2.7539-4.8438,0.000001-9.7656-1.4648-14.766-4.3945,3.3203,1.5625,6.5429,2.3438,9.668,2.3438,2.1484,0.000002,5.0195-0.625,8.6133-1.875,3.5937-1.2891,6.5234-3.8281,8.7891-7.6172,1.8359-3.6328,2.7539-7.4023,2.7539-11.309-0.000048-2.9687-0.52739-6.0156-1.582-9.1406l4.043-2.4609c1.3281,0.93753,2.6171,1.4063,3.8672,1.4062,1.2109,0.000034,2.3828-0.44918,3.5156-1.3477l3.75,2.2852c-1.0157,2.7344-1.5235,5.4102-1.5234,8.0273-0.000061,3.7891,1.0742,7.4219,3.2227,10.898,2.4609,4.4531,5.2538,7.2852,8.3789,8.4961,3.1249,1.1719,6.0351,1.7578,8.7305,1.7578,3.1249,0.000003,6.7577-0.52734,10.898-1.582m-26.483-82.791c6.328,2.6173,11.308,8.1642,14.941,16.641,0.62492,2.0313,0.93742,4.0626,0.9375,6.0938-0.000081,4.2579-1.3477,8.5547-4.043,12.891h0.23438c4.1015,0.39068,8.496,1.8946,13.184,4.5117,7.6171,5.0782,11.426,12.637,11.426,22.676v0.58594c-0.509-6.134-2.813-10.978-6.915-14.533-4.101-3.554-8.34-5.332-12.715-5.332-7.148,0.391-13.261,3.457-18.339,9.2l-4.1016-2.3438c0.039-0.2734,0.05853-0.54684,0.05859-0.82031-0.000059-2.7343-1.2501-4.5898-3.75-5.5664v-4.3945c7.1093-1.2109,12.305-4.8632,15.586-10.957,2.0702-3.3984,3.1054-6.8359,3.1055-10.312-0.000074-1.0156-0.23445-2.9101-0.70312-5.6836-0.46882-2.7734-3.4376-6.9921-8.9062-12.656m-58.946,64.394c-0.15626-0.93748-0.23438-1.8945-0.23438-2.8711-0.00000586-5.8203,2.3633-11.875,7.0898-18.164,4.2578-4.6093,9.9023-6.914,16.934-6.9141h1.0547l-0.11719-0.11719c-1.72-3.829-2.618-8.419-2.697-13.77,0.665-10.547,6.387-18.008,17.168-22.383-6.914,4.0626-10.703,7.8516-11.367,11.367-0.6641,3.5157-0.99613,6.0352-0.99609,7.5586-0.000032,3.3204,0.74215,6.3087,2.2266,8.9648,3.9453,5.9376,9.6484,9.668,17.109,11.191l0.05859,4.8047c-2.5782,1.1329-3.8672,2.8711-3.8672,5.2148-0.000048,0.3516,0.03901,0.72269,0.11719,1.1133l-3.75,2.1094c-4.4141-5.3125-9.8633-7.9687-16.348-7.9688h-0.82031c-0.11722,0.000043-0.25393,0.000043-0.41016,0-5,0.000043-9.2383,1.4454-12.715,4.3359-3.4766,2.8516-6.2891,8.0274-8.4375,15.527" stroke="#fffff0" stroke-dasharray="none" stroke-miterlimit="4" stroke-width="2" fill="#434343"/>
 </g>
</svg>
