<!-- Created with Inkscape (http://www.inkscape.org/) -->
<svg id="svg2985" xmlns:rdf="http://www.w3.org/1999/02/22-rdf-syntax-ns#" xmlns="http://www.w3.org/2000/svg" height="100%" viewBox="0 0 532.68379 578.64209" width="100%" version="1.1" xmlns:cc="http://creativecommons.org/ns#" xmlns:dc="http://purl.org/dc/elements/1.1/">
 <metadata id="metadata7">
  <rdf:RDF>
   <cc:Work rdf:about="">
    <dc:format>image/svg+xml</dc:format>
    <dc:type rdf:resource="http://purl.org/dc/dcmitype/StillImage"/>
    <dc:title/>
   </cc:Work>
  </rdf:RDF>
 </metadata>
 <g id="g4270" transform="translate(57.685789,-147.11497)" stroke="#fffff0" stroke-miterlimit="4" stroke-dasharray="none" stroke-width="10" fill="#F90">
  <path id="oe-svg" d="m405,209.19c-26.61,0-48.188,21.578-48.188,48.188,0,16.365,8.1839,30.792,20.656,39.5v0.0312l-37.47,140.47h130l-37.469-140.5c12.472-8.708,20.656-23.135,20.656-39.5,0-26.61-21.578-48.188-48.188-48.188z" stroke="#fffff0" stroke-dasharray="none" stroke-miterlimit="4" stroke-width="10" fill="#F90"/>
 </g>
 <text id="text4452" style="word-spacing:0px;letter-spacing:0px;text-anchor:middle;text-align:center;" font-weight="normal" xml:space="preserve" font-size="50px" line-height="775%" y="29.687496" font-style="normal" x="-2.2460938" font-family="Sans" fill="#fffff0"><tspan id="tspan4454" y="29.687496" x="-2.2460938" style="text-anchor:start;text-align:start;" font-size="40px">MEDIC</tspan></text>
 <text id="text3780" style="letter-spacing:0px;text-anchor:start;word-spacing:0px;text-align:start;" font-family="Sans" xml:space="preserve" font-size="36px" line-height="120.00000477%" font-style="normal" y="95.953789" x="15.734485" font-weight="normal" fill="#fffff0"><tspan id="tspan3859" y="95.953789" x="15.734485">∘ Remove all cubes</tspan><tspan id="tspan3916" y="139.15379" x="15.734485">of one color when</tspan><tspan id="tspan3918" y="182.35379" x="15.734485">treating a disease.</tspan><tspan id="tspan3794" y="225.55379" x="15.734485"/><tspan id="tspan3865" y="268.75378" x="15.734485">∘ Automatically</tspan><tspan id="tspan3929" y="311.9538" x="15.734485">remove cubes of</tspan><tspan id="tspan3931" y="355.15381" x="15.734485">cured diseases from the city</tspan><tspan id="tspan3933" y="398.35379" x="15.734485">you are in (and prevent</tspan><tspan id="tspan3935" y="441.5538" x="15.734485">them from being placed</tspan><tspan id="tspan3937" y="484.75381" x="15.734485">there).</tspan></text>
</svg>
