<!-- Created with Inkscape (http://www.inkscape.org/) -->
<svg id="svg2985" xmlns:rdf="http://www.w3.org/1999/02/22-rdf-syntax-ns#" xmlns="http://www.w3.org/2000/svg" height="100%" viewBox="0 0 532.68378 602.15423" width="100%" version="1.1" xmlns:cc="http://creativecommons.org/ns#" xmlns:dc="http://purl.org/dc/elements/1.1/">
 <metadata id="metadata7">
  <rdf:RDF>
   <cc:Work rdf:about="">
    <dc:format>image/svg+xml</dc:format>
    <dc:type rdf:resource="http://purl.org/dc/dcmitype/StillImage"/>
    <dc:title/>
   </cc:Work>
  </rdf:RDF>
 </metadata>
 <g id="g3817" transform="matrix(0.54248608,-0.47848594,0.47848594,0.54248608,-67.310631,220.08322)">
  <g id="g3829" transform="translate(24.095374,-27.318263)">
   <g id="g3836" transform="translate(31.091805,-35.250506)">
    <g id="g3821" transform="matrix(0.92072008,0,0,0.92072008,-41.563592,189.19817)" stroke="#fffff0" stroke-dasharray="none" stroke-miterlimit="4" fill="none">
     <path id="path3797" d="m465.65,264.08c0,83.14-67.398,150.54-150.54,150.54-83.14,0-150.54-67.398-150.54-150.54,0-83.14,67.398-150.54,150.54-150.54,83.14,0,150.54,67.398,150.54,150.54z" transform="translate(-48.768491,36.996759)" stroke-width="34.56126022"/>
     <path id="path3813" stroke-linejoin="miter" d="m118.91,301.01,294.87,0.13634" stroke-linecap="butt" stroke-width="27.6490078"/>
    </g>
    <text id="text3825" style="letter-spacing:0px;text-anchor:middle;word-spacing:0px;text-align:center;" font-family="Sans" xml:space="preserve" transform="matrix(0.74996008,0.66148309,-0.66148309,0.74996008,0,0)" font-size="55.29801559px" font-style="normal" y="445.86694" x="460.34003" font-weight="normal" line-height="775%" fill="#fffff0"><tspan id="tspan3827" y="445.86694" x="460.34003">NONE</tspan></text>
   </g>
  </g>
 </g>
</svg>
