<!-- Created with Inkscape (http://www.inkscape.org/) -->
<svg id="svg2985" xmlns:rdf="http://www.w3.org/1999/02/22-rdf-syntax-ns#" xmlns="http://www.w3.org/2000/svg" height="100%" viewBox="0 0 532.68378 602.15423" width="100%" version="1.1" xmlns:cc="http://creativecommons.org/ns#" xmlns:dc="http://purl.org/dc/elements/1.1/">
 <defs id="defs3006"></defs>
 <metadata id="metadata7">
  <rdf:RDF>
   <cc:Work rdf:about="">
    <dc:format>image/svg+xml</dc:format>
    <dc:type rdf:resource="http://purl.org/dc/dcmitype/StillImage"/>
    <dc:title/>
   </cc:Work>
  </rdf:RDF>
 </metadata>
 <g id="g3817" transform="matrix(0.54248608,-0.47848594,0.47848594,0.54248608,-67.310631,220.08322)">
  <g id="g3829" transform="translate(24.095374,-27.318263)">
   <g id="g3836" transform="translate(31.091805,-35.250506)">
    <g id="g4428">
     <g id="g4436" transform="translate(-27.692716,31.396769)">
      <text id="text3825" style="letter-spacing:0px;text-anchor:middle;word-spacing:0px;text-align:center;" font-weight="normal" xml:space="preserve" transform="matrix(0.74996008,0.66148309,-0.66148309,0.74996008,0,0)" line-height="775%" font-size="55.29801559px" y="398.86377" x="460.34003" font-family="Sans" font-style="normal" fill="#fffff0"><tspan id="tspan3827" x="460.34003" y="398.86377">RANDOM</tspan></text>
      <g id="g4270" transform="matrix(1.2906424,1.1383781,-1.1383781,1.2906424,116.90108,-488.89176)" stroke="#fffff0" stroke-dasharray="none" stroke-miterlimit="4" stroke-width="10" fill="none">
       <path id="oe-svg" d="m405,209.19c-26.61,0-48.188,21.578-48.188,48.188,0,16.365,8.1839,30.792,20.656,39.5v0.0312l-37.47,140.47h130l-37.469-140.5c12.472-8.708,20.656-23.135,20.656-39.5,0-26.61-21.578-48.188-48.188-48.188z" stroke="#fffff0" stroke-miterlimit="4" stroke-dasharray="none" stroke-width="10" fill="none"/>
      </g>
      <text id="text4424" style="letter-spacing:0px;text-anchor:middle;word-spacing:0px;text-align:center;" font-weight="normal" xml:space="preserve" transform="matrix(0.74996008,0.66148309,-0.66148309,0.74996008,0,0)" line-height="775%" font-size="207.36755371px" y="274.46326" x="461.10617" font-family="Sans" font-style="normal" fill="#000000"><tspan id="tspan4426" font-size="207.36755371px" y="274.46326" x="461.10617" fill="#fffff0">?</tspan></text>
     </g>
    </g>
   </g>
  </g>
 </g>
</svg>
