<!-- Created with Inkscape (http://www.inkscape.org/) -->
<svg id="svg2" xmlns:rdf="http://www.w3.org/1999/02/22-rdf-syntax-ns#" xmlns="http://www.w3.org/2000/svg" height="100%" viewBox="0 0 4378 2185" width="100%" version="1.1" xmlns:cc="http://creativecommons.org/ns#" xmlns:dc="http://purl.org/dc/elements/1.1/">
 <style id="style4" type="text/css">.unavailable { 
 		stroke-width: 2.0;
 	}
 	.available {
 		stroke-width: 2.0;
 	}
 	.available:hover {
 		stroke-width: 8.0;
 	}</style>
 <defs id="defs4">
  <filter id="filter3952-0" color-interpolation-filters="sRGB">
   <feGaussianBlur id="feGaussianBlur3954-0" stdDeviation="5" result="result91"/>
   <feComposite id="feComposite3956-1" operator="over" in2="result91" in="SourceGraphic"/>
  </filter>
  <filter id="filter3952-0-5" color-interpolation-filters="sRGB">
   <feGaussianBlur id="feGaussianBlur3954-0-8" stdDeviation="5" result="result91"/>
   <feComposite id="feComposite3956-1-1" operator="over" in2="result91" in="SourceGraphic"/>
  </filter>
  <filter id="filter3952-0-0" color-interpolation-filters="sRGB">
   <feGaussianBlur id="feGaussianBlur3954-0-87" stdDeviation="5" result="result91"/>
   <feComposite id="feComposite3956-1-2" operator="over" in2="result91" in="SourceGraphic"/>
  </filter>
  <filter id="filter3952-0-01" color-interpolation-filters="sRGB">
   <feGaussianBlur id="feGaussianBlur3954-0-7" stdDeviation="5" result="result91"/>
   <feComposite id="feComposite3956-1-8" operator="over" in2="result91" in="SourceGraphic"/>
  </filter>
  <filter id="filter3952-0-03" color-interpolation-filters="sRGB">
   <feGaussianBlur id="feGaussianBlur3954-0-2" stdDeviation="5" result="result91"/>
   <feComposite id="feComposite3956-1-3" operator="over" in2="result91" in="SourceGraphic"/>
  </filter>
  <filter id="filter3952-0-06" color-interpolation-filters="sRGB">
   <feGaussianBlur id="feGaussianBlur3954-0-73" stdDeviation="5" result="result91"/>
   <feComposite id="feComposite3956-1-24" operator="over" in2="result91" in="SourceGraphic"/>
  </filter>
  <filter id="filter3952-0-7" color-interpolation-filters="sRGB">
   <feGaussianBlur id="feGaussianBlur3954-0-4" stdDeviation="5" result="result91"/>
   <feComposite id="feComposite3956-1-31" operator="over" in2="result91" in="SourceGraphic"/>
  </filter>
  <filter id="filter3952-0-8" color-interpolation-filters="sRGB">
   <feGaussianBlur id="feGaussianBlur3954-0-1" stdDeviation="5" result="result91"/>
   <feComposite id="feComposite3956-1-5" operator="over" in2="result91" in="SourceGraphic"/>
  </filter>
  <filter id="filter3952-0-52" color-interpolation-filters="sRGB">
   <feGaussianBlur id="feGaussianBlur3954-0-6" stdDeviation="5" result="result91"/>
   <feComposite id="feComposite3956-1-82" operator="over" in2="result91" in="SourceGraphic"/>
  </filter>
  <filter id="filter3952-0-527" color-interpolation-filters="sRGB">
   <feGaussianBlur id="feGaussianBlur3954-0-5" stdDeviation="5" result="result91"/>
   <feComposite id="feComposite3956-1-59" operator="over" in2="result91" in="SourceGraphic"/>
  </filter>
  <filter id="filter3952-0-3" color-interpolation-filters="sRGB">
   <feGaussianBlur id="feGaussianBlur3954-0-9" stdDeviation="5" result="result91"/>
   <feComposite id="feComposite3956-1-50" operator="over" in2="result91" in="SourceGraphic"/>
  </filter>
  <filter id="filter3952-0-6" color-interpolation-filters="sRGB">
   <feGaussianBlur id="feGaussianBlur3954-0-96" stdDeviation="5" result="result91"/>
   <feComposite id="feComposite3956-1-248" operator="over" in2="result91" in="SourceGraphic"/>
  </filter>
  <filter id="filter3952-0-4" color-interpolation-filters="sRGB">
   <feGaussianBlur id="feGaussianBlur3954-0-13" stdDeviation="5" result="result91"/>
   <feComposite id="feComposite3956-1-7" operator="over" in2="result91" in="SourceGraphic"/>
  </filter>
  <filter id="filter3952-0-9" color-interpolation-filters="sRGB">
   <feGaussianBlur id="feGaussianBlur3954-0-46" stdDeviation="5" result="result91"/>
   <feComposite id="feComposite3956-1-34" operator="over" in2="result91" in="SourceGraphic"/>
  </filter>
  <filter id="filter3952-0-1" color-interpolation-filters="sRGB">
   <feGaussianBlur id="feGaussianBlur3954-0-92" stdDeviation="5" result="result91"/>
   <feComposite id="feComposite3956-1-38" operator="over" in2="result91" in="SourceGraphic"/>
  </filter>
  <filter id="filter3952-0-37" color-interpolation-filters="sRGB">
   <feGaussianBlur id="feGaussianBlur3954-0-72" stdDeviation="5" result="result91"/>
   <feComposite id="feComposite3956-1-36" operator="over" in2="result91" in="SourceGraphic"/>
  </filter>
  <filter id="filter3952-0-2" color-interpolation-filters="sRGB">
   <feGaussianBlur id="feGaussianBlur3954-0-84" stdDeviation="5" result="result91"/>
   <feComposite id="feComposite3956-1-6" operator="over" in2="result91" in="SourceGraphic"/>
  </filter>
  <filter id="filter3952-0-57" color-interpolation-filters="sRGB">
   <feGaussianBlur id="feGaussianBlur3954-0-94" stdDeviation="5" result="result91"/>
   <feComposite id="feComposite3956-1-37" operator="over" in2="result91" in="SourceGraphic"/>
  </filter>
  <filter id="filter3952-0-71" color-interpolation-filters="sRGB">
   <feGaussianBlur id="feGaussianBlur3954-0-41" stdDeviation="5" result="result91"/>
   <feComposite id="feComposite3956-1-17" operator="over" in2="result91" in="SourceGraphic"/>
  </filter>
  <filter id="filter3952-0-48" color-interpolation-filters="sRGB">
   <feGaussianBlur id="feGaussianBlur3954-0-42" stdDeviation="5" result="result91"/>
   <feComposite id="feComposite3956-1-58" operator="over" in2="result91" in="SourceGraphic"/>
  </filter>
  <filter id="filter3952-0-63" color-interpolation-filters="sRGB">
   <feGaussianBlur id="feGaussianBlur3954-0-55" stdDeviation="5" result="result91"/>
   <feComposite id="feComposite3956-1-9" operator="over" in2="result91" in="SourceGraphic"/>
  </filter>
  <filter id="filter3952-0-89" color-interpolation-filters="sRGB">
   <feGaussianBlur id="feGaussianBlur3954-0-67" stdDeviation="5" result="result91"/>
   <feComposite id="feComposite3956-1-60" operator="over" in2="result91" in="SourceGraphic"/>
  </filter>
  <filter id="filter3952-0-96" color-interpolation-filters="sRGB">
   <feGaussianBlur id="feGaussianBlur3954-0-20" stdDeviation="5" result="result91"/>
   <feComposite id="feComposite3956-1-99" operator="over" in2="result91" in="SourceGraphic"/>
  </filter>
  <filter id="filter3952-0-55" color-interpolation-filters="sRGB">
   <feGaussianBlur id="feGaussianBlur3954-0-672" stdDeviation="5" result="result91"/>
   <feComposite id="feComposite3956-1-4" operator="over" in2="result91" in="SourceGraphic"/>
  </filter>
  <filter id="filter3952-0-30" color-interpolation-filters="sRGB">
   <feGaussianBlur id="feGaussianBlur3954-0-3" stdDeviation="5" result="result91"/>
   <feComposite id="feComposite3956-1-0" operator="over" in2="result91" in="SourceGraphic"/>
  </filter>
  <filter id="filter3952-0-09" color-interpolation-filters="sRGB">
   <feGaussianBlur id="feGaussianBlur3954-0-50" stdDeviation="5" result="result91"/>
   <feComposite id="feComposite3956-1-55" operator="over" in2="result91" in="SourceGraphic"/>
  </filter>
  <filter id="filter3952-0-75" color-interpolation-filters="sRGB">
   <feGaussianBlur id="feGaussianBlur3954-0-49" stdDeviation="5" result="result91"/>
   <feComposite id="feComposite3956-1-556" operator="over" in2="result91" in="SourceGraphic"/>
  </filter>
  <filter id="filter3952-0-34" color-interpolation-filters="sRGB">
   <feGaussianBlur id="feGaussianBlur3954-0-878" stdDeviation="5" result="result91"/>
   <feComposite id="feComposite3956-1-53" operator="over" in2="result91" in="SourceGraphic"/>
  </filter>
  <filter id="filter3952-0-93" color-interpolation-filters="sRGB">
   <feGaussianBlur id="feGaussianBlur3954-0-88" stdDeviation="5" result="result91"/>
   <feComposite id="feComposite3956-1-00" operator="over" in2="result91" in="SourceGraphic"/>
  </filter>
  <filter id="filter3952-0-24" color-interpolation-filters="sRGB">
   <feGaussianBlur id="feGaussianBlur3954-0-59" stdDeviation="5" result="result91"/>
   <feComposite id="feComposite3956-1-72" operator="over" in2="result91" in="SourceGraphic"/>
  </filter>
  <filter id="filter3952-0-27" color-interpolation-filters="sRGB">
   <feGaussianBlur id="feGaussianBlur3954-0-0" stdDeviation="5" result="result91"/>
   <feComposite id="feComposite3956-1-98" operator="over" in2="result91" in="SourceGraphic"/>
  </filter>
  <filter id="filter3952-0-60" color-interpolation-filters="sRGB">
   <feGaussianBlur id="feGaussianBlur3954-0-426" stdDeviation="5" result="result91"/>
   <feComposite id="feComposite3956-1-70" operator="over" in2="result91" in="SourceGraphic"/>
  </filter>
  <filter id="filter3952-0-05" color-interpolation-filters="sRGB">
   <feGaussianBlur id="feGaussianBlur3954-0-12" stdDeviation="5" result="result91"/>
   <feComposite id="feComposite3956-1-315" operator="over" in2="result91" in="SourceGraphic"/>
  </filter>
  <filter id="filter3952-0-64" color-interpolation-filters="sRGB">
   <feGaussianBlur id="feGaussianBlur3954-0-91" stdDeviation="5" result="result91"/>
   <feComposite id="feComposite3956-1-83" operator="over" in2="result91" in="SourceGraphic"/>
  </filter>
  <filter id="filter3952-0-558" color-interpolation-filters="sRGB">
   <feGaussianBlur id="feGaussianBlur3954-0-81" stdDeviation="5" result="result91"/>
   <feComposite id="feComposite3956-1-92" operator="over" in2="result91" in="SourceGraphic"/>
  </filter>
  <filter id="filter3952-0-07" color-interpolation-filters="sRGB">
   <feGaussianBlur id="feGaussianBlur3954-0-419" stdDeviation="5" result="result91"/>
   <feComposite id="feComposite3956-1-14" operator="over" in2="result91" in="SourceGraphic"/>
  </filter>
  <filter id="filter3952-0-67" color-interpolation-filters="sRGB">
   <feGaussianBlur id="feGaussianBlur3954-0-45" stdDeviation="5" result="result91"/>
   <feComposite id="feComposite3956-1-30" operator="over" in2="result91" in="SourceGraphic"/>
  </filter>
  <filter id="filter3952-0-80" color-interpolation-filters="sRGB">
   <feGaussianBlur id="feGaussianBlur3954-0-25" stdDeviation="5" result="result91"/>
   <feComposite id="feComposite3956-1-370" operator="over" in2="result91" in="SourceGraphic"/>
  </filter>
  <filter id="filter3952-0-43" color-interpolation-filters="sRGB">
   <feGaussianBlur id="feGaussianBlur3954-0-01" stdDeviation="5" result="result91"/>
   <feComposite id="feComposite3956-1-22" operator="over" in2="result91" in="SourceGraphic"/>
  </filter>
  <filter id="filter3952-0-38" color-interpolation-filters="sRGB">
   <feGaussianBlur id="feGaussianBlur3954-0-90" stdDeviation="5" result="result91"/>
   <feComposite id="feComposite3956-1-26" operator="over" in2="result91" in="SourceGraphic"/>
  </filter>
  <filter id="filter3952-0-035" color-interpolation-filters="sRGB">
   <feGaussianBlur id="feGaussianBlur3954-0-29" stdDeviation="5" result="result91"/>
   <feComposite id="feComposite3956-1-43" operator="over" in2="result91" in="SourceGraphic"/>
  </filter>
  <filter id="filter3952-0-76" color-interpolation-filters="sRGB">
   <feGaussianBlur id="feGaussianBlur3954-0-11" stdDeviation="5" result="result91"/>
   <feComposite id="feComposite3956-1-45" operator="over" in2="result91" in="SourceGraphic"/>
  </filter>
  <filter id="filter3952-0-609" color-interpolation-filters="sRGB">
   <feGaussianBlur id="feGaussianBlur3954-0-78" stdDeviation="5" result="result91"/>
   <feComposite id="feComposite3956-1-48" operator="over" in2="result91" in="SourceGraphic"/>
  </filter>
  <filter id="filter3952-0-25" color-interpolation-filters="sRGB">
   <feGaussianBlur id="feGaussianBlur3954-0-22" stdDeviation="5" result="result91"/>
   <feComposite id="feComposite3956-1-57" operator="over" in2="result91" in="SourceGraphic"/>
  </filter>
  <filter id="filter3952-0-933" color-interpolation-filters="sRGB">
   <feGaussianBlur id="feGaussianBlur3954-0-011" stdDeviation="5" result="result91"/>
   <feComposite id="feComposite3956-1-992" operator="over" in2="result91" in="SourceGraphic"/>
  </filter>
  <filter id="filter3952-0-98" color-interpolation-filters="sRGB">
   <feGaussianBlur id="feGaussianBlur3954-0-06" stdDeviation="5" result="result91"/>
   <feComposite id="feComposite3956-1-81" operator="over" in2="result91" in="SourceGraphic"/>
  </filter>
  <filter id="filter3952-0-56" color-interpolation-filters="sRGB">
   <feGaussianBlur id="feGaussianBlur3954-0-28" stdDeviation="5" result="result91"/>
   <feComposite id="feComposite3956-1-16" operator="over" in2="result91" in="SourceGraphic"/>
  </filter>
  <filter id="filter3952-0-80-3" color-interpolation-filters="sRGB">
   <feGaussianBlur id="feGaussianBlur3954-0-25-4" stdDeviation="5" result="result91"/>
   <feComposite id="feComposite3956-1-370-3" operator="over" in2="result91" in="SourceGraphic"/>
  </filter>
 </defs>
 <metadata id="metadata7">
  <rdf:RDF>
   <cc:Work rdf:about="">
    <dc:format>image/svg+xml</dc:format>
    <dc:type rdf:resource="http://purl.org/dc/dcmitype/StillImage"/>
    <dc:title/>
   </cc:Work>
  </rdf:RDF>
 </metadata>
 <g id="layer6" stroke="#fffff0" transform="translate(100.02854,0.0022043)">
  <path id="0" d="m655.68,679.29a32.945,32.945,0,1,1,-65.889,0,32.945,32.945,0,1,1,65.889,0z" transform="matrix(1.2326306,0,0,1.2270023,-301.5128,-315.0904)" filter="url(#filter3952-0)" class="available" fill="#75a4ff"/>
  <path id="1" d="m655.68,679.29a32.945,32.945,0,1,1,-65.889,0,32.945,32.945,0,1,1,65.889,0z" transform="matrix(1.2326306,0,0,1.2270023,77.74719,-329.15039)" filter="url(#filter3952-0-5)" class="available" fill="#75a4ff"/>
  <path id="2" d="m655.68,679.29a32.945,32.945,0,1,1,-65.889,0,32.945,32.945,0,1,1,65.889,0z" transform="matrix(1.2326306,0,0,1.2270023,266.99719,-435.6204)" filter="url(#filter3952-0-0)" class="available" fill="#75a4ff"/>
  <path id="3" d="m655.68,679.29a32.945,32.945,0,1,1,-65.889,0,32.945,32.945,0,1,1,65.889,0z" transform="matrix(1.2326306,0,0,1.2270023,439.69719,-285.3604)" filter="url(#filter3952-0-01)" class="available" fill="#75a4ff"/>
  <path id="4" d="m655.68,679.29a32.945,32.945,0,1,1,-65.889,0,32.945,32.945,0,1,1,65.889,0z" transform="matrix(1.2326306,0,0,1.2270023,372.25719,-151.97039)" filter="url(#filter3952-0-03)" class="available" fill="#75a4ff"/>
  <path id="5" d="m655.68,679.29a32.945,32.945,0,1,1,-65.889,0,32.945,32.945,0,1,1,65.889,0z" transform="matrix(1.2326306,0,0,1.2270023,91.25719,-134.5404)" filter="url(#filter3952-0-7)" class="available" fill="#75a4ff"/>
  <path id="6" d="m655.68,679.29a32.945,32.945,0,1,1,-65.889,0,32.945,32.945,0,1,1,65.889,0z" transform="matrix(1.2326306,0,0,1.2270023,1001.6673,-269.5194)" filter="url(#filter3952-0-63)" class="available" fill="#75a4ff"/>
  <path id="7" d="m655.68,679.29a32.945,32.945,0,1,1,-65.889,0,32.945,32.945,0,1,1,65.889,0z" transform="matrix(1.2326306,0,0,1.2270023,1056.7893,-490.7004)" filter="url(#filter3952-0-89)" class="available" fill="#75a4ff"/>
  <path id="8" d="m655.68,679.29a32.945,32.945,0,1,1,-65.889,0,32.945,32.945,0,1,1,65.889,0z" transform="matrix(1.2326306,0,0,1.2270023,1221.5673,-362.8944)" filter="url(#filter3952-0-96)" class="available" fill="#75a4ff"/>
  <path id="9" d="m655.68,679.29a32.945,32.945,0,1,1,-65.889,0,32.945,32.945,0,1,1,65.889,0z" transform="matrix(1.2326306,0,0,1.2270023,1408.8973,-378.88039)" filter="url(#filter3952-0-55)" class="available" fill="#75a4ff"/>
  <path id="10" d="m655.68,679.29a32.945,32.945,0,1,1,-65.889,0,32.945,32.945,0,1,1,65.889,0z" transform="matrix(1.2326306,0,0,1.2270023,1353.8573,-572.62239)" filter="url(#filter3952-0-30)" class="available" fill="#75a4ff"/>
  <path id="11" d="m655.68,679.29a32.945,32.945,0,1,1,-65.889,0,32.945,32.945,0,1,1,65.889,0z" transform="matrix(1.2326306,0,0,1.2270023,1574.7973,-534.54039)" filter="url(#filter3952-0-09)" class="available" fill="#75a4ff"/>
  <path id="12" d="m655.68,679.29a32.945,32.945,0,1,1,-65.889,0,32.945,32.945,0,1,1,65.889,0z" transform="matrix(1.2326306,0,0,1.2270023,-292.67281,-61.980401)" filter="url(#filter3952-0-52)" class="available" fill="#ffe680"/>
  <path id="13" d="m655.68,679.29a32.945,32.945,0,1,1,-65.889,0,32.945,32.945,0,1,1,65.889,0z" transform="matrix(1.2326306,0,0,1.2270023,-71.398715,169.8202)" filter="url(#filter3952-0-8)" class="available" fill="#ffe680"/>
  <path id="14" d="m655.68,679.29a32.945,32.945,0,1,1,-65.889,0,32.945,32.945,0,1,1,65.889,0z" transform="matrix(1.2326306,0,0,1.2270023,226.79719,-39.560401)" filter="url(#filter3952-0-06)" class="available" fill="#ffe680"/>
  <path id="15" d="m655.68,679.29a32.945,32.945,0,1,1,-65.889,0,32.945,32.945,0,1,1,65.889,0z" transform="matrix(1.2326306,0,0,1.2270023,331.30919,270.6596)" filter="url(#filter3952-0-527)" class="available" fill="#ffe680"/>
  <path id="16" d="m655.68,679.29a32.945,32.945,0,1,1,-65.889,0,32.945,32.945,0,1,1,65.889,0z" transform="matrix(1.2326306,0,0,1.2270023,283.06419,487.6296)" filter="url(#filter3952-0-3)" class="available" fill="#ffe680"/>
  <path id="17" d="m655.68,679.29a32.945,32.945,0,1,1,-65.889,0,32.945,32.945,0,1,1,65.889,0z" transform="matrix(1.2326306,0,0,1.2270023,245.49719,793.30961)" filter="url(#filter3952-0-6)" class="available" fill="#ffe680"/>
  <path id="18" d="m655.68,679.29a32.945,32.945,0,1,1,-65.889,0,32.945,32.945,0,1,1,65.889,0z" transform="matrix(1.2326306,0,0,1.2270023,503.17719,797.79961)" filter="url(#filter3952-0-4)" class="available" fill="#ffe680"/>
  <path id="19" d="m655.68,679.29a32.945,32.945,0,1,1,-65.889,0,32.945,32.945,0,1,1,65.889,0z" transform="matrix(1.2326306,0,0,1.2270023,649.76719,640.32961)" filter="url(#filter3952-0-9)" class="available" fill="#ffe680"/>
  <path id="20" d="m655.68,679.29a32.945,32.945,0,1,1,-65.889,0,32.945,32.945,0,1,1,65.889,0z" transform="matrix(1.2326306,0,0,1.2270023,1247.2473,222.4696)" filter="url(#filter3952-0-1)" class="available" fill="#ffe680"/>
  <path id="21" d="m655.68,679.29a32.945,32.945,0,1,1,-65.889,0,32.945,32.945,0,1,1,65.889,0z" transform="matrix(1.2326306,0,0,1.2270023,1420.8373,317.2396)" filter="url(#filter3952-0-37)" class="available" fill="#ffe680"/>
  <path id="22" d="m655.68,679.29a32.945,32.945,0,1,1,-65.889,0,32.945,32.945,0,1,1,65.889,0z" transform="matrix(1.2326306,0,0,1.2270023,1573.4973,87.479601)" filter="url(#filter3952-0-57)" class="available" fill="#ffe680"/>
  <path id="23" d="m655.68,679.29a32.945,32.945,0,1,1,-65.889,0,32.945,32.945,0,1,1,65.889,0z" transform="matrix(1.2326306,0,0,1.2270023,1502.7973,720.6096)" filter="url(#filter3952-0-2)" class="available" fill="#ffe680"/>
  <path id="24" d="m655.68,679.29a32.945,32.945,0,1,1,-65.889,0,32.945,32.945,0,1,1,65.889,0z" transform="matrix(1.2326306,0,0,1.2270023,1545.5973,-98.750401)" filter="url(#filter3952-0-71)" class="available" fill="#000"/>
  <path id="25" d="m655.68,679.29a32.945,32.945,0,1,1,-65.889,0,32.945,32.945,0,1,1,65.889,0z" transform="matrix(1.2326306,0,0,1.2270023,1230.3973,-68.560401)" filter="url(#filter3952-0-48)" class="available" fill="#000"/>
  <path id="26" d="m655.68,679.29a32.945,32.945,0,1,1,-65.889,0,32.945,32.945,0,1,1,65.889,0z" transform="matrix(1.2326306,0,0,1.2270023,1543.0323,-269.29039)" filter="url(#filter3952-0-75)" class="available" fill="#000"/>
  <path id="27" d="m655.68,679.29a32.945,32.945,0,1,1,-65.889,0,32.945,32.945,0,1,1,65.889,0z" transform="matrix(1.2326306,0,0,1.2270023,1711.1973,-434.3604)" filter="url(#filter3952-0-34)" class="available" fill="#000"/>
  <path id="28" d="m655.68,679.29a32.945,32.945,0,1,1,-65.889,0,32.945,32.945,0,1,1,65.889,0z" transform="matrix(1.2326306,0,0,1.2270023,1881.2973,-299.52039)" filter="url(#filter3952-0-93)" class="available" fill="#000"/>
  <path id="29" d="m655.68,679.29a32.945,32.945,0,1,1,-65.889,0,32.945,32.945,0,1,1,65.889,0z" transform="matrix(1.2326306,0,0,1.2270023,1707.7763,-181.68039)" filter="url(#filter3952-0-24)" class="available" fill="#000"/>
  <path id="30" d="m655.68,679.29a32.945,32.945,0,1,1,-65.889,0,32.945,32.945,0,1,1,65.889,0z" transform="matrix(1.2326306,0,0,1.2270023,1756.2373,-10.637401)" filter="url(#filter3952-0-27)" class="available" fill="#000"/>
  <path id="31" d="m655.68,679.29a32.945,32.945,0,1,1,-65.889,0,32.945,32.945,0,1,1,65.889,0z" transform="matrix(1.2326306,0,0,1.2270023,1980.0973,-102.1604)" filter="url(#filter3952-0-60)" class="available" fill="#000"/>
  <path id="32" d="m655.68,679.29a32.945,32.945,0,1,1,-65.889,0,32.945,32.945,0,1,1,65.889,0z" transform="matrix(1.2326306,0,0,1.2270023,2157.8373,-153.05039)" filter="url(#filter3952-0-64)" class="available" fill="#000"/>
  <path id="33" d="m655.68,679.29a32.945,32.945,0,1,1,-65.889,0,32.945,32.945,0,1,1,65.889,0z" transform="matrix(1.2326306,0,0,1.2270023,1999.4973,77.739601)" filter="url(#filter3952-0-05)" class="available" fill="#000"/>
  <path id="34" d="m655.68,679.29a32.945,32.945,0,1,1,-65.889,0,32.945,32.945,0,1,1,65.889,0z" transform="matrix(1.2326306,0,0,1.2270023,2147.2873,171.0436)" filter="url(#filter3952-0-558)" class="available" fill="#000"/>
  <path id="35" d="m655.68,679.29a32.945,32.945,0,1,1,-65.889,0,32.945,32.945,0,1,1,65.889,0z" transform="matrix(1.2326306,0,0,1.2270023,2311.1973,-74.970401)" filter="url(#filter3952-0-07)" class="available" fill="#000"/>
  <path id="36" d="m655.68,679.29a32.945,32.945,0,1,1,-65.889,0,32.945,32.945,0,1,1,65.889,0z" transform="matrix(1.2326306,0,0,1.2270023,2342.5153,101.9396)" filter="url(#filter3952-0-67)" class="available" fill="#ff8080"/>
  <path id="37" d="m655.68,679.29a32.945,32.945,0,1,1,-65.889,0,32.945,32.945,0,1,1,65.889,0z" transform="matrix(1.2326306,0,0,1.2270023,2542.5973,-25.820401)" filter="url(#filter3952-0-38)" class="available" fill="#ff8080"/>
  <path id="38" d="m655.68,679.29a32.945,32.945,0,1,1,-65.889,0,32.945,32.945,0,1,1,65.889,0z" transform="matrix(1.2326306,0,0,1.2270023,2542.5974,-201.79039)" filter="url(#filter3952-0-609)" class="available" fill="#ff8080"/>
  <path id="39" d="m655.68,679.29a32.945,32.945,0,1,1,-65.889,0,32.945,32.945,0,1,1,65.889,0z" transform="matrix(1.2326306,0,0,1.2270023,2546.2973,-392.8504)" filter="url(#filter3952-0-25)" class="available" fill="#ff8080"/>
  <path id="40" d="m655.68,679.29a32.945,32.945,0,1,1,-65.889,0,32.945,32.945,0,1,1,65.889,0z" transform="matrix(1.2326306,0,0,1.2270023,2763.4673,-378.94839)" filter="url(#filter3952-0-933)" class="available" fill="#ff8080"/>
  <path id="41" d="m655.68,679.29a32.945,32.945,0,1,1,-65.889,0,32.945,32.945,0,1,1,65.889,0z" transform="matrix(1.2326306,0,0,1.2270023,2986.5333,-306.4604)" filter="url(#filter3952-0-98)" class="available" fill="#ff8080"/>
  <path id="42" d="m655.68,679.29a32.945,32.945,0,1,1,-65.889,0,32.945,32.945,0,1,1,65.889,0z" transform="matrix(1.2326306,0,0,1.2270023,2957.2973,-102.7304)" filter="url(#filter3952-0-56)" class="available" fill="#ff8080"/>
  <path id="43" d="m655.68,679.29a32.945,32.945,0,1,1,-65.889,0,32.945,32.945,0,1,1,65.889,0z" transform="matrix(1.2326306,0,0,1.2270023,2786.4973,-7.6104013)" filter="url(#filter3952-0-76)" class="available" fill="#ff8080"/>
  <path id="44" d="m655.68,679.29a32.945,32.945,0,1,1,-65.889,0,32.945,32.945,0,1,1,65.889,0z" transform="matrix(1.2326306,0,0,1.2270023,2757.9633,207.1996)" filter="url(#filter3952-0-035)" class="available" fill="#ff8080"/>
  <path id="46" d="m655.68,679.29a32.945,32.945,0,1,1,-65.889,0,32.945,32.945,0,1,1,65.889,0z" transform="matrix(1.2326306,0,0,1.2270023,2454.2373,408.08961)" filter="url(#filter3952-0-80)" class="available" fill="#ff8080"/>
  <path id="45" d="m655.68,679.29a32.945,32.945,0,1,1,-65.889,0,32.945,32.945,0,1,1,65.889,0z" transform="matrix(1.2326306,0,0,1.2270023,2558.6973,231.30961)" filter="url(#filter3952-0-43)" class="available" fill="#ff8080"/>
  <path id="47" d="m655.68,679.29a32.945,32.945,0,1,1,-65.889,0,32.945,32.945,0,1,1,65.889,0z" transform="matrix(1.2326306,0,0,1.2270023,2992.5272,834.7696)" filter="url(#filter3952-0-80-3)" class="available" fill="#ff8080"/>
 </g>
</svg>
