<!-- Created with Inkscape (http://www.inkscape.org/) -->
<svg id="svg2" xmlns:rdf="http://www.w3.org/1999/02/22-rdf-syntax-ns#" xmlns="http://www.w3.org/2000/svg" viewBox="0 0 78.494 191" version="1.1" xmlns:cc="http://creativecommons.org/ns#" xmlns:dc="http://purl.org/dc/elements/1.1/">
 <metadata id="metadata7">
  <rdf:RDF>
   <cc:Work rdf:about="">
    <dc:format>image/svg+xml</dc:format>
    <dc:type rdf:resource="http://purl.org/dc/dcmitype/StillImage"/>
    <dc:title/>
   </cc:Work>
  </rdf:RDF>
 </metadata>
 <style>
 	.selected {
 		fill: #fffff0;
 	}
 	
 	.unselected {
 		fill: none;
 	}
 	
 	.unselectable {
 		-webkit-touch-callout: none;
	    -webkit-user-select: none;
	    -khtml-user-select: none;
	    -moz-user-select: none;
	    -ms-user-select: none;
	    user-select: none;
 	}
 </style>
 <g id="layer2" transform="translate(17.493616,3.8281252e-7)">
  <text class="unselectable" id="text5766" style="writing-mode:lr-tb;letter-spacing:0px;text-anchor:start;word-spacing:0px;text-align:start;" font-weight="normal" xml:space="preserve" transform="matrix(-0.00106688,-0.99999943,0.99999943,-0.00106688,0,0)" font-style="normal" font-stretch="normal" font-size="14px" font-variant="normal" y="-7.1048222" x="-76.588287" font-family="Mukti Narrow" line-height="120.00000477%" fill="#fffff0"><tspan id="tspan5768" style="writing-mode:lr-tb;text-anchor:start;text-align:start;" font-weight="normal" font-size="14px" font-style="normal" line-height="120.00000477%" font-stretch="normal" font-variant="normal" y="-7.1048222" x="-76.588287" font-family="DejaVu Sans Mono">OUTBREAKS</tspan></text>
 </g>
 <g id="layer1" transform="translate(-162.00638,-61.862183)">
  <path id="path5468" d="m160,77.362c0,8.2843-6.7157,15-15,15s-15-6.7157-15-15,6.7157-15,15-15,15,6.7157,15,15z" transform="translate(50,0)" stroke="#fffff0" stroke-dasharray="none" stroke-miterlimit="4" stroke-width="1" class="unselected"/>
  <path id="path5468-1" d="m160,77.362c0,8.2843-6.7157,15-15,15s-15-6.7157-15-15,6.7157-15,15-15,15,6.7157,15,15z" transform="translate(80,20)" stroke="#fffff0" stroke-dasharray="none" stroke-miterlimit="4" stroke-width="1" class="unselected"/>
  <path id="path5468-5" d="m160,77.362c0,8.2843-6.7157,15-15,15s-15-6.7157-15-15,6.7157-15,15-15,15,6.7157,15,15z" transform="translate(50,40)" stroke="#fffff0" stroke-dasharray="none" stroke-miterlimit="4" stroke-width="1" class="unselected"/>
  <path id="path5468-8" d="m160,77.362c0,8.2843-6.7157,15-15,15s-15-6.7157-15-15,6.7157-15,15-15,15,6.7157,15,15z" transform="translate(80,60)" stroke="#fffff0" stroke-dasharray="none" stroke-miterlimit="4" stroke-width="1" class="unselected"/>
  <path id="path5468-9" d="m160,77.362c0,8.2843-6.7157,15-15,15s-15-6.7157-15-15,6.7157-15,15-15,15,6.7157,15,15z" transform="translate(50,80)" stroke="#fffff0" stroke-dasharray="none" stroke-miterlimit="4" stroke-width="1" class="unselected"/>
  <path id="path5468-2" d="m160,77.362c0,8.2843-6.7157,15-15,15s-15-6.7157-15-15,6.7157-15,15-15,15,6.7157,15,15z" transform="translate(80,100)" stroke="#fffff0" stroke-dasharray="none" stroke-miterlimit="4" stroke-width="1" class="unselected"/>
  <path id="path5468-82" d="m160,77.362c0,8.2843-6.7157,15-15,15s-15-6.7157-15-15,6.7157-15,15-15,15,6.7157,15,15z" transform="translate(50,120)" stroke="#fffff0" stroke-dasharray="none" stroke-miterlimit="4" stroke-width="1" class="unselected"/>
  <path id="path5468-99" d="m160,77.362c0,8.2843-6.7157,15-15,15s-15-6.7157-15-15,6.7157-15,15-15,15,6.7157,15,15z" transform="translate(80,140)" stroke="#fffff0" stroke-dasharray="none" stroke-miterlimit="4" stroke-width="1" class="unselected"/>
  <path id="path5468-99-6" d="m160,77.362c0,8.2843-6.7157,15-15,15s-15-6.7157-15-15,6.7157-15,15-15,15,6.7157,15,15z" transform="translate(50,160)" stroke="#fffff0" stroke-dasharray="none" stroke-miterlimit="4" stroke-width="1" class="selected"/>
  <text class="unselectable" id="text5530" style="writing-mode:lr-tb;letter-spacing:0px;text-anchor:start;word-spacing:0px;text-align:start;" font-weight="normal" xml:space="preserve" font-size="14px" font-style="normal" font-stretch="normal" font-variant="normal" y="102.46521" x="220.42334" font-family="Sans" line-height="125%" fill="#ff9999"><tspan id="tspan5532" x="220.42334" y="102.46521">1</tspan></text>
  <text class="unselectable" id="text5534" style="writing-mode:lr-tb;letter-spacing:0px;text-anchor:start;word-spacing:0px;text-align:start;" font-weight="normal" xml:space="preserve" font-size="14px" font-style="normal" font-stretch="normal" font-variant="normal" y="122.5575" x="190.73438" font-family="Sans" line-height="125%" fill="#ff8080"><tspan id="tspan5536" x="190.73438" y="122.5575">2</tspan></text>
  <text class="unselectable" id="text5538" style="writing-mode:lr-tb;letter-spacing:0px;text-anchor:start;word-spacing:0px;text-align:start;" font-weight="normal" xml:space="preserve" font-size="14px" font-style="normal" font-stretch="normal" font-variant="normal" y="142.45837" x="220.57373" font-family="Sans" line-height="125%" fill="#ff6666"><tspan id="tspan5540" x="220.57373" y="142.45837">3</tspan></text>
  <text class="unselectable" id="text5542" style="writing-mode:lr-tb;letter-spacing:0px;text-anchor:start;word-spacing:0px;text-align:start;" font-weight="normal" xml:space="preserve" font-size="14px" font-style="normal" font-stretch="normal" font-variant="normal" y="162.46521" x="190.59766" font-family="Sans" line-height="125%" fill="#ff4d4d"><tspan id="tspan5544" x="190.59766" y="162.46521">4</tspan></text>
  <text class="unselectable" id="text5546" style="writing-mode:lr-tb;letter-spacing:0px;text-anchor:start;word-spacing:0px;text-align:start;" font-weight="normal" xml:space="preserve" font-size="14px" font-style="normal" font-stretch="normal" font-variant="normal" y="182.36609" x="220.61816" font-family="Sans" line-height="125%" fill="#ff3333"><tspan id="tspan5548" x="220.61816" y="182.36609">5</tspan></text>
  <text class="unselectable" id="text5550" style="writing-mode:lr-tb;letter-spacing:0px;text-anchor:start;word-spacing:0px;text-align:start;" font-weight="normal" xml:space="preserve" font-size="14px" font-style="normal" font-stretch="normal" font-variant="normal" y="202.45837" x="190.49854" font-family="Sans" line-height="125%" fill="#ff1919"><tspan id="tspan5552" x="190.49854" y="202.45837">6</tspan></text>
  <text class="unselectable" id="text5554" style="writing-mode:lr-tb;letter-spacing:0px;text-anchor:start;word-spacing:0px;text-align:start;" font-weight="normal" xml:space="preserve" font-size="14px" font-style="normal" font-stretch="normal" font-variant="normal" y="222.46521" x="220.57031" font-family="Sans" line-height="125%" fill="#ff0000"><tspan id="tspan5556" x="220.57031" y="222.46521">7</tspan></text>
  <text class="unselectable" id="text5558" style="letter-spacing:0px;word-spacing:0px;" font-weight="normal" xml:space="preserve" font-size="18px" font-style="normal" y="216.96603" x="224.75894" font-family="Sans" line-height="125%" fill="#000000"><tspan id="tspan5560" x="224.75894" y="216.96603"/></text>
  <flowRoot id="flowRoot5562" style="letter-spacing:0px;word-spacing:0px;" font-weight="normal" xml:space="preserve" font-size="18px" line-height="125%" font-style="normal" font-family="Sans" fill="#000000"><flowRegion id="flowRegion5564"><rect id="rect5566" y="202.82" width="8.5863" x="224.76" height="26.011"/></flowRegion><flowPara id="flowPara5568"/></flowRoot>
  <text class="unselectable" id="text5570" style="writing-mode:lr-tb;letter-spacing:0px;text-anchor:start;word-spacing:0px;text-align:start;" font-weight="normal" fill-opacity="0.94117647" xml:space="preserve" font-size="24px" font-style="normal" font-stretch="normal" font-variant="normal" y="246.01062" x="187.04883" font-family="Sans" line-height="125%" fill="#e60000"><tspan id="tspan5572" x="187.04883" y="246.01062"></tspan></text>
  <text class="unselectable" id="text5612" style="writing-mode:lr-tb;letter-spacing:0px;text-anchor:start;word-spacing:0px;text-align:start;" font-weight="normal" xml:space="preserve" font-size="14px" font-style="normal" font-stretch="normal" font-variant="normal" y="82.458374" x="190.5498" font-family="Sans" line-height="125%" fill="#ffb2b2"><tspan id="tspan5614" x="190.5498" y="82.458374">0</tspan></text>
 </g>
</svg>
