<!-- Created with Inkscape (http://www.inkscape.org/) -->
<svg id="svg2" xmlns:rdf="http://www.w3.org/1999/02/22-rdf-syntax-ns#" xmlns="http://www.w3.org/2000/svg" viewBox="0 0 240 238.19" version="1.1" xmlns:cc="http://creativecommons.org/ns#" xmlns:dc="http://purl.org/dc/elements/1.1/">
 <metadata id="metadata7">
  <rdf:RDF>
   <cc:Work rdf:about="">
    <dc:format>image/svg+xml</dc:format>
    <dc:type rdf:resource="http://purl.org/dc/dcmitype/StillImage"/>
    <dc:title/>
   </cc:Work>
  </rdf:RDF>
 </metadata>
 <g id="layer1" transform="translate(-325,-203.26843)" stroke="#fffff0" stroke-dasharray="none" stroke-miterlimit="4" stroke-width="10">
  <path id="path2987" d="m395,208.27c-26.61,0-48.188,21.578-48.188,48.188,0,16.365,8.1839,30.792,20.656,39.5v0.0312l-37.47,140.47h130l-37.469-140.5c12.472-8.708,20.656-23.135,20.656-39.5,0-26.61-21.578-48.188-48.188-48.188z" fill="#888"/>
  <path id="path2987-3" d="m445,208.27c-26.61,0-48.188,21.578-48.188,48.188,0,16.365,8.1839,30.792,20.656,39.5v0.0312l-37.47,140.47h130l-37.469-140.5c12.472-8.708,20.656-23.135,20.656-39.5,0-26.61-21.578-48.188-48.188-48.188z" fill="#686868"/>
  <path id="path2987-6" d="m495,208.27c-26.61,0-48.188,21.578-48.188,48.188,0,16.365,8.1839,30.792,20.656,39.5v0.0312l-37.47,140.47h130l-37.469-140.5c12.472-8.708,20.656-23.135,20.656-39.5,0-26.61-21.578-48.188-48.188-48.188z" fill="#555"/>
 </g>
</svg>
